<svg xmlns="http://www.w3.org/2000/svg" height="512" width="512" fill="#fff" xmlns:v="https://vecta.io/nano"><path d="M256 356c-55.141 0-100-44.86-100-100s44.859-100 100-100 100 44.86 100 100-44.859 100-100 100zm0-160c-33.084 0-60 26.916-60 60s26.916 60 60 60 60-26.916 60-60-26.916-60-60-60zm0 240C152.602 436 52.911 343.758 3.205 266.859a20 20 0 0 1 0-21.718C55.284 164.57 155.49 76 256 76c103.399 0 203.089 92.241 252.795 169.141a20 20 0 0 1 0 21.718C456.716 347.43 356.51 436 256 436zM44.415 255.985C69.752 290.585 155.23 396 256 396c101.018 0 186.291-105.356 211.584-139.984C442.236 221.4 356.763 116 256 116 154.982 116 69.709 221.356 44.415 255.985z"/></svg>