<svg xmlns="http://www.w3.org/2000/svg" width="512" height="512" viewBox="0 0 32 32"><path d="M16 32a16 16 0 1 1 16-16 16 16 0 0 1-16 16zm0-29.87A13.87 13.87 0 1 0 29.87 16 13.88 13.88 0 0 0 16 2.13zm0 22.4a9.58 9.58 0 0 1-6.35-2.4 1.07 1.07 0 1 1 1.41-1.6 7.46 7.46 0 0 0 9.87 0 1.07 1.07 0 0 1 1.41 1.6 9.58 9.58 0 0 1-6.34 2.4zM20.27 16a1.07 1.07 0 0 1-1.07-1.07v-2.66a1.07 1.07 0 1 1 2.13 0v2.67A1.07 1.07 0 0 1 20.27 16zm-8.54 0a1.07 1.07 0 0 1-1.07-1.07v-2.66a1.07 1.07 0 1 1 2.13 0v2.67A1.07 1.07 0 0 1 11.73 16z"/></svg>