<svg xmlns="http://www.w3.org/2000/svg" width="22" height="27" fill="white" xmlns:v="https://vecta.io/nano"><path d="M16.345 6.763C14.121 6.6 12.233 7.99 11.181 7.99c-1.069 0-2.715-1.192-4.462-1.16-2.293.033-4.406 1.318-5.588 3.346-2.382 4.082-.608 10.132 1.712 13.445 1.134 1.619 2.488 3.443 4.266 3.377 1.711-.066 2.358-1.092 4.426-1.092s2.65 1.092 4.46 1.059c1.841-.033 3.008-1.652 4.135-3.28 1.303-1.879 1.84-3.698 1.871-3.794-.041-.015-3.589-1.36-3.625-5.399-.032-3.376 2.79-4.999 2.919-5.078-1.603-2.33-4.078-2.587-4.949-2.651zm-1.889-2.677C15.367 3.004 15.98 1.498 15.812 0c-1.312.051-2.898.858-3.838 1.939-.842.957-1.582 2.491-1.381 3.958 1.461.111 2.953-.729 3.863-1.811z"/></svg>
